<?xml version="1.0" encoding="UTF-8" standalone="no"?>
<!-- Created with Inkscape (http://www.inkscape.org/) -->

<svg
   xmlns:dc="http://purl.org/dc/elements/1.1/"
   xmlns:cc="http://creativecommons.org/ns#"
   xmlns:rdf="http://www.w3.org/1999/02/22-rdf-syntax-ns#"
   xmlns:svg="http://www.w3.org/2000/svg"
   xmlns="http://www.w3.org/2000/svg"
   version="1.1"
   width="100%"
   height="100%"
   viewBox="0 0 48 48"
   id="Layer_1"
   xml:space="preserve"><metadata
   id="metadata3132"><rdf:RDF><cc:Work
       rdf:about=""><dc:format>image/svg+xml</dc:format><dc:type
         rdf:resource="http://purl.org/dc/dcmitype/StillImage" /><dc:title></dc:title></cc:Work></rdf:RDF></metadata><defs
   id="defs3130" />
<style
   type="text/css"
   id="style3107" />






<g
   transform="matrix(0.92379425,0,0,0.82250344,-4.0318222,-0.22424714)"
   id="svg2"><g
     transform="matrix(0.86878568,0,0,0.86878568,17.877857,2.1616977)"
     id="g3034"><path
       d="m 7,27.1 c -9.8,0 -18.1,3.2 -18.1,7.1 v 5.9 c 0,3.9 8.3,7.1 18.1,7.1 9.8,0 18.1,-3.2 18.1,-7.1 V 34.2 C 24.9,30.3 16.8,27.1 7,27.1 l 0,0 z"
       id="path3036"
       style="fill:#f7f7f9;stroke:#000000;stroke-width:2.03344178;stroke-miterlimit:10" /><path
       d="m 19.9,33.9 c 0,2.3 -5.8,4 -13.1,4 -7.3,0 -13.1,-2 -13.1,-4 0,-2.3 5.8,-4 13.1,-4 7.3,0 13.1,1.8 13.1,4 z"
       id="path3038"
       style="fill:#ffffff" /><path
       d="m 7,27.5 c -9.5,0 -16.8,2.6 -16.8,6.2 0,3.3 7.6,6.2 16.8,6.2 9.2,0 16.8,-2.6 16.8,-6.2 0,-3.1 -7.3,-6.2 -16.8,-6.2 l 0,0 z m 0,0.6 c 8.9,0 15.9,2.6 15.9,5.6 0,3.2 -7.2,5.6 -15.9,5.6 -8.7,0 -16.1,-2.6 -16.1,-5.6 0,-3.1 7.2,-5.6 16.1,-5.6 l 0,0 z"
       id="path3040"
       style="fill:#333333;stroke:#000000;stroke-width:2.03344178;stroke-miterlimit:10" /><path
       d="m 7,15.3 c -9.8,0 -18.1,3.2 -18.1,7.1 v 5.9 c 0,3.9 8.3,7.1 18.1,7.1 9.8,0 18.1,-3.2 18.1,-7.1 V 22.4 C 24.9,18.4 16.8,15.3 7,15.3 l 0,0 z"
       id="path3042"
       style="fill:#ffffff;stroke:#000000;stroke-width:2.03344178;stroke-miterlimit:10" /><path
       d="m 19.9,22.2 c 0,2.3 -5.8,4 -13.1,4 -7.3,0 -13.1,-2 -13.1,-4 0,-2.3 5.8,-4 13.1,-4 7.3,0 13.1,1.5 13.1,4 z"
       id="path3044"
       style="fill:#ffffff" /><path
       d="m 7,15.8 c -9.5,0 -16.9,2.6 -16.9,6.3 0,3.3 7.6,6.2 16.8,6.2 9.2,0 16.8,-2.6 16.8,-6.2 C 23.8,18.6 16.5,15.8 7,15.8 l 0,0 z m 0,0.6 c 8.9,0 15.9,2.6 15.9,5.6 0,3.2 -7.2,5.6 -15.9,5.6 -8.7,0 -16.1,-2.5 -16.1,-5.5 0,-3.2 7.2,-5.7 16.1,-5.7 l 0,0 z"
       id="path3046"
       style="fill:#333333;stroke:#000000;stroke-width:2.03344178;stroke-miterlimit:10" /><path
       d="m 7,3.1 c -9.8,0 -18.1,3.2 -18.1,7.1 v 5.9 c 0,3.9 8.3,7.1 18.1,7.1 9.8,0 18.1,-3.2 18.1,-7.1 V 10.2 C 24.9,6.3 16.8,3.1 7,3.1 l 0,0 z"
       id="path3048"
       style="fill:#fafafc;stroke:#000000;stroke-width:2.03344178;stroke-miterlimit:10" /><path
       d="m 19.9,9.9 c 0,2.3 -5.8,4 -13.1,4 -7.3,0 -13.1,-2 -13.1,-4 0,-2.3 5.8,-4 13.1,-4 7.3,0 13.1,1.7 13.1,4 z"
       id="path3050"
       style="fill:#ffffff" /><path
       d="m 7,3.7 c -9.5,0 -16.9,2.6 -16.9,6.2 0,3.3 7.6,6.2 16.8,6.2 9.2,0 16.8,-2.6 16.8,-6.2 C 23.8,6.5 16.5,3.7 7,3.7 l 0,0 z M 7,4 c 8.9,0 15.9,2.6 15.9,5.6 0,3.2 -7.2,5.6 -15.9,5.6 C -1.7,15.2 -9.1,12.6 -9.1,9.6 -9.1,6.5 -1.9,4 7,4 l 0,0 z"
       id="path3052"
       style="fill:#333333;stroke:#000000;stroke-width:2.03344178;stroke-miterlimit:10" /></g></g><ellipse
   cx="30.9"
   cy="30.799999"
   rx="13.9"
   ry="14"
   id="ellipse3121"
   style="fill:#ffffff;stroke:#000000;stroke-width:2;stroke-miterlimit:10" />
<g
   id="Layer_1_2_">
	<g
   id="g3124">
		<path
   d="M 37.8,33 30.5,21.4 23.9,33 h 4.2 l 0.2,8.4 5.2,-0.1 -0.3,-8.5 4.6,0.2 z m -7,-1.8 0,0 0,0 0,0 z"
   id="path3126"
   style="fill:#7c8081;stroke:#000000;stroke-width:1.5;stroke-miterlimit:10" />
	</g>
</g>
</svg>