<?xml version="1.0" encoding="utf-8"?>
<!-- Generator: Adobe Illustrator 19.2.1, SVG Export Plug-In . SVG Version: 6.00 Build 0)  -->
<svg version="1.1" id="Layer_1" xmlns="http://www.w3.org/2000/svg" xmlns:xlink="http://www.w3.org/1999/xlink" x="0px" y="0px"
	 viewBox="0 0 48 48" style="enable-background:new 0 0 48 48;" xml:space="preserve">
<style type="text/css">
	.st0{fill:#FFFFFF;stroke:#010101;stroke-width:1.5;stroke-miterlimit:10;}
	.st1{fill:#FFFFFF;stroke:#000000;stroke-width:2;stroke-miterlimit:10;}
	.st2{fill:#010101;stroke:#010101;stroke-width:0.75;stroke-miterlimit:10;}
</style>
<g>
	<g>
		<path class="st0" d="M3.3,2.9c-0.4,0-0.5,0.3-0.5,0.5v35.5c0,1.3,0.9,2.3,2.4,2.3h27.6c0.4,0,0.5-0.2,0.5-0.5V14.9l-11.7-12
			C21.5,2.9,3.3,2.9,3.3,2.9z"/>
	</g>
	<path class="st0" d="M23.9,15.2l8.3-0.1c0.4,0,0.5-0.4,0.4-0.5l-10.8-11c-0.2-0.2-0.5-0.1-0.5,0.2l0.1,8.8
		C21.6,14.2,22.6,15.2,23.9,15.2z"/>
</g>
<ellipse class="st1" cx="30.9" cy="31.2" rx="14.1" ry="13.8"/>
<path class="st2" d="M37.7,29.9h-5.3v-6.4c0.2-0.9-0.9-0.9-1.7-0.9c-0.6,0-1.5,0-1.5,0.9V30h-5.8c-1.2,0-1.3,0.4-1.3,1.6
	c0,0.9,0,1.3,1.3,1.4h5.7v5.9c0,0.9,0.9,0.9,1.5,0.9s1.5,0,1.5-0.9v-5.8H38c1.4-0.1,1.4-0.8,1.4-1.6C39.4,30.5,39.2,29.9,37.7,29.9z
	"/>
</svg>
