<?xml version="1.0" encoding="UTF-8" standalone="no"?>
<!-- Created with Inkscape (http://www.inkscape.org/) -->

<svg
   xmlns:dc="http://purl.org/dc/elements/1.1/"
   xmlns:cc="http://creativecommons.org/ns#"
   xmlns:rdf="http://www.w3.org/1999/02/22-rdf-syntax-ns#"
   xmlns:svg="http://www.w3.org/2000/svg"
   xmlns="http://www.w3.org/2000/svg"
   version="1.1"
   width="48"
   height="48"
   viewBox="0 0 48 48"
   id="Layer_1"
   xml:space="preserve"><metadata
   id="metadata9"><rdf:RDF><cc:Work
       rdf:about=""><dc:format>image/svg+xml</dc:format><dc:type
         rdf:resource="http://purl.org/dc/dcmitype/StillImage" /><dc:title></dc:title></cc:Work></rdf:RDF></metadata><defs
   id="defs7" />
<path
   d="m 29.693048,9.7673813 c 4.717313,0 8.539571,3.8222577 8.539571,8.5395697 0,1.123043 -0.230746,2.190489 -0.625434,3.174586 3.633232,0.984007 6.318482,4.269785 6.318482,8.211509 0,4.717312 -3.822259,8.53957 -8.539571,8.53957 H 11.190645 c -3.9306929,0 -7.1163086,-3.185704 -7.1163086,-7.116308 0,-3.930605 3.1857047,-7.11631 7.1163086,-7.11631 0.218204,0 0.422532,0.04447 0.63522,0.06396 -0.400292,-0.889538 -0.63522,-1.870788 -0.63522,-2.910482 0,-3.930692 3.185705,-7.116308 7.11631,-7.116308 1.284316,0 2.47265,0.366934 3.512254,0.961857 1.292677,-3.074511 4.329562,-5.2316417 7.873839,-5.2316417 m 0,-2.8465239 c -3.641592,0 -6.985635,1.7207229 -9.103893,4.5422506 -0.746323,-0.180755 -1.508035,-0.272466 -2.2822,-0.272466 -5.492901,0 -9.9628334,4.469932 -9.9628334,9.962832 0,0.139036 0.0028,0.275224 0.00836,0.411413 -4.1155389,1.223114 -7.1246701,5.042615 -7.1246701,9.55142 0,5.4929 4.4699316,9.962832 9.9628325,9.962832 h 24.19545 c 6.279609,0 11.386094,-5.106486 11.386094,-11.386094 0,-4.150232 -2.2822,-7.90026 -5.795878,-9.884998 0.06947,-0.494762 0.102831,-0.997974 0.102831,-1.501097 0,-6.276762 -5.106485,-11.3860933 -11.386095,-11.3860933 l 0,0 z"
   id="path3" />
</svg>