<?xml version="1.0" encoding="utf-8"?>
<!-- Generator: Adobe Illustrator 19.2.1, SVG Export Plug-In . SVG Version: 6.00 Build 0)  -->
<svg version="1.1" id="Layer_1" xmlns="http://www.w3.org/2000/svg" xmlns:xlink="http://www.w3.org/1999/xlink" x="0px" y="0px"
	 viewBox="0 0 48 48" style="enable-background:new 0 0 48 48;" xml:space="preserve">
<style type="text/css">
	.st0{fill:none;stroke:#010202;stroke-width:1.5;stroke-miterlimit:10;}
	.st1{fill:#FFFFFF;stroke:#000000;stroke-width:2;stroke-miterlimit:10;}
	.st2{fill:#333638;stroke:#000000;stroke-width:0.5;stroke-miterlimit:10;}
</style>
<line class="st0" x1="9.1" y1="3.5" x2="13.3" y2="3.5"/>
<line class="st0" x1="9.5" y1="2.7" x2="2.8" y2="37.5"/>
<line class="st0" x1="13" y1="2.8" x2="20" y2="37.4"/>
<line class="st0" x1="11.1" y1="2.1" x2="11.1" y2="41.9"/>
<line class="st0" x1="6" y1="7.4" x2="16.5" y2="7.4"/>
<line class="st0" x1="6" y1="10.3" x2="16.5" y2="10.3"/>
<line class="st0" x1="6.2" y1="7.8" x2="6.2" y2="10.2"/>
<line class="st0" x1="16.1" y1="7.9" x2="16.1" y2="10.2"/>
<line class="st0" x1="19.1" y1="34.6" x2="5.5" y2="26"/>
<line class="st0" x1="6.2" y1="22.9" x2="15.2" y2="16.5"/>
<line class="st0" x1="15.1" y1="16.4" x2="8.3" y2="10.3"/>
<line class="st0" x1="3.9" y1="23.4" x2="18.5" y2="23.4"/>
<line class="st0" x1="3.9" y1="26" x2="18.5" y2="26"/>
<line class="st0" x1="19.1" y1="23.4" x2="19.1" y2="26"/>
<line class="st0" x1="3.4" y1="23.7" x2="3.4" y2="26"/>
<ellipse class="st1" cx="30.9" cy="30.9" rx="13.9" ry="14"/>
<g>
	<path class="st2" d="M30.8,28.2L30.8,28.2c-0.2,0-0.4-0.2-0.4-0.4v-5.2c0-0.2,0.2-0.4,0.4-0.4l0,0c0.2,0,0.4,0.2,0.4,0.4v5.2
		C31.2,28,31,28.2,30.8,28.2z"/>
	<path class="st2" d="M28.4,30.9L28.4,30.9c0,0.2-0.2,0.4-0.4,0.4h-5.3c-0.2,0-0.4-0.2-0.4-0.4l0,0c0-0.2,0.2-0.4,0.4-0.4H28
		C28.2,30.5,28.4,30.7,28.4,30.9z"/>
	<path class="st2" d="M29.1,32.7L29.1,32.7c0.2,0.2,0.2,0.4,0,0.6l-3.7,3.9c-0.2,0.2-0.4,0.1-0.5,0l0,0c-0.2-0.2-0.2-0.4,0-0.6
		l3.7-3.9C28.7,32.6,28.9,32.5,29.1,32.7z"/>
	<path class="st2" d="M39.1,30.9L39.1,30.9c0,0.2-0.2,0.4-0.4,0.4h-5.3c-0.2,0-0.4-0.2-0.4-0.4l0,0c0-0.2,0.2-0.4,0.4-0.4h5.3
		C38.9,30.5,39.1,30.7,39.1,30.9z"/>
	<path class="st2" d="M30.7,33.5L30.7,33.5c0.2,0,0.4,0.2,0.4,0.4v5.5c0,0.2-0.2,0.4-0.4,0.4l0,0c-0.2,0-0.4-0.2-0.4-0.4v-5.5
		C30.3,33.7,30.5,33.5,30.7,33.5z"/>
	<path class="st2" d="M36.6,24.9L36.6,24.9c0.2,0.2,0.2,0.4,0,0.6l-3.7,3.9c-0.2,0.2-0.5,0-0.5,0c-0.2-0.2-0.2-0.4,0-0.6l3.7-3.9
		C36.3,24.8,36.5,24.8,36.6,24.9z"/>
	<path class="st2" d="M24.8,24.9L24.8,24.9c0.2-0.2,0.3-0.1,0.5,0l3.7,3.9c0.2,0.2,0.2,0.4,0,0.6l0,0c-0.2,0.2-0.3,0.1-0.5,0
		l-3.7-3.9C24.6,25.3,24.6,25,24.8,24.9z"/>
	<path class="st2" d="M32.4,32.7L32.4,32.7c0.1-0.1,0.3-0.2,0.5,0l3.7,3.9c0.2,0.2,0.2,0.4,0,0.6l0,0c-0.2,0.2-0.4,0.2-0.5,0
		l-3.7-3.9C32.2,33.1,32.2,32.8,32.4,32.7z"/>
</g>
</svg>
