<?xml version="1.0" encoding="utf-8"?>
<!-- Generator: Adobe Illustrator 21.0.0, SVG Export Plug-In . SVG Version: 6.00 Build 0)  -->
<svg version="1.1" id="Layer_1" xmlns="http://www.w3.org/2000/svg" xmlns:xlink="http://www.w3.org/1999/xlink" x="0px" y="0px"
	 viewBox="0 0 48 48" style="enable-background:new 0 0 48 48;" xml:space="preserve">
<style type="text/css">
	.st0{fill:none;stroke:#010101;stroke-width:2;stroke-miterlimit:10;}
	.st1{stroke:#000000;stroke-miterlimit:10;}
	.st2{fill:#9F9F9F;}
	.st3{fill:#646464;}
</style>
<g>
	<path class="st0" d="M16.3,36.8"/>
	<path class="st1" d="M28.2,45l-25-4.4c-0.5-0.1-0.8-0.5-0.8-1V11.8c0-0.5,0.2-0.7,0.8-1.3l1.7-1.7c1.2-1.2,2.8-1.9,4.5-2.1l0,0
		c1.3-0.1,2.5-0.5,3.7-1.2l4.5-2.6c0.5-0.3,1.1-0.4,1.7-0.3l5.2,1.5c0,0,0,0,0,0c0.6,0.2,1.3,0.2,2,0.2l7,0c2.5,0,5,0.4,7.3,1.3
		L44.2,7c0.6,0.1,1,0.6,1,1.2L45,35.9c-0.1,0.5-0.4,1-0.9,1.3L30,44.7C29.5,45,28.8,45.1,28.2,45"/>
	<path class="st2" d="M28,18.6l-2.1-0.3c-1.6-0.2-2.5-1.1-3.1-1.8c-1.2-1.3-3.7-2.1-5-2.5L14,12.8c-1.5-0.5-3.1-0.8-4.7-0.8
		l-5.7-0.2l2.5-2.5c0.6-0.6,1.4-1,2.2-1.3l5.4-1.6c0.6-0.2,1.2-0.5,1.8-0.8L18,4.1c0.4-0.3,1-0.4,1.5-0.2l3.2,1.3
		c1.9,0.5,2.6,0.7,4.7,0.7l4.6-0.2c2.1-0.1,4.2,0.3,6.2,1l5,1.9L39,11.3c-0.5,0.3-1.1,0.6-1.7,0.8l-1.4,0.4c-3,0.8-4.6,0.7-6.5,3.1
		c-0.4,0.5-0.6,1-0.9,1.5L28,18.6z"/>
	<path class="st2" d="M27.3,31.1l-1.2,0.2c-0.8,0.1-1.7,0.1-2.5-0.1c-3.6-0.6-5.3-1.9-8.1-4.8l0,0c-1.2-1.2-4.7-4.3-12-2.1l0,0V13.5
		l5.7,0.3c1.2,0.1,2.5,0.3,3.7,0.6l2.8,0.8c0.5,0.2,2.8,1,3.4,1.5c2.8,2.3,3.7,3.3,8.1,3.9l0,0L27.3,31.1z"/>
	<path class="st2" d="M43.7,21.5l-0.9,0.9c-1.3,1.2-3.1,1.7-4.9,1.3h0c-1.3-0.3-2.6,0.1-3.5,1l-5.2,5.5v-9.7l0.7-2
		c0.2-0.6,0.6-1.2,1-1.7c1-1.3,1.9-2.1,3.6-2.5l3.7-0.8c0.7-0.2,1.4-0.5,2.1-0.9l3.4-2.4V21.5z"/>
	<path class="st3" d="M27.3,43.6L3.6,39V26.1l2.6-0.7c2.4-0.6,5.1-0.4,6.9,1.4l2.9,2.7c1.5,1.4,5,3.6,10,3.4l1.3,0V43.6z"/>
	<path class="st3" d="M43.7,35.8l-14.5,7.7V32.9l5.8-6.2c0.7-0.7,1.7-1.1,2.8-0.9l1,0.2c1.3,0.2,2.7-0.1,3.8-0.9l1.2-0.8V35.8z"/>
</g>
</svg>
