<?xml version="1.0" encoding="utf-8"?>
<!-- Generator: Adobe Illustrator 21.0.0, SVG Export Plug-In . SVG Version: 6.00 Build 0)  -->
<svg version="1.1" id="Layer_1" xmlns="http://www.w3.org/2000/svg" xmlns:xlink="http://www.w3.org/1999/xlink" x="0px" y="0px"
	 viewBox="0 0 48 48" style="enable-background:new 0 0 48 48;" xml:space="preserve">
<style type="text/css">
	.st0{enable-background:new    ;}
	.st1{fill:none;}
	.st2{fill:#FFFFFF;stroke:#000000;stroke-width:1.5;stroke-miterlimit:10;}
	.st3{stroke:#000000;stroke-width:0.25;stroke-miterlimit:10;}
	.st4{fill:#000002;}
	.st5{fill:none;stroke:#000000;stroke-width:1.5;stroke-miterlimit:10;}
</style>
<g>
	<g class="st0">
		<g class="st0">
			<g>
				<g>
					<g>
						<g>
							<g>
								<g>
									<g>
										<g>
											<g class="st0">
												<path d="M3.3,11.1L3.3,11.1"/>
												<path d="M3.3,11.1"/>
												<path d="M3.3,11.1C3.4,11.1,3.4,11.1,3.3,11.1"/>
												<path d="M3.3,11.1"/>
												<path d="M3.4,11.1L3.4,11.1"/>
												<path d="M3.4,11.1"/>
												<path d="M3.4,11.1C3.5,11.1,3.4,11.1,3.4,11.1"/>
												<path d="M3.4,11.1"/>
												<path d="M3.5,11.1L3.5,11.1"/>
												<path d="M3.5,11.1"/>
												<path d="M3.5,11.1L3.5,11.1"/>
												<path d="M3.5,11.1"/>
												<path d="M3.5,11.1L3.5,11.1"/>
												<path d="M3.5,11.1"/>
												<line class="st1" x1="3.5" y1="11.1" x2="3.5" y2="11.1"/>
												<path d="M3.5,11.1"/>
											</g>
										</g>
									</g>
								</g>
							</g>
						</g>
					</g>
				</g>
			</g>
		</g>
	</g>
</g>
<path class="st2" d="M44,39.1l-12.8,5.5l-12.9-4.9L4.8,44.2c-0.9,0.2-1.7-0.4-1.7-1.2L2.8,10c0-0.7,0.5-1.3,1.1-1.6l14.2-5.2l12.9,6
	L43.2,4C44.1,3.6,45,4.2,45,5.2v32.4C45.1,38.1,44.6,38.9,44,39.1z"/>
<g>
	<path class="st3" d="M16,16.5l-3.2-5.4v0.1l-3.1,7.7l2.2-0.8v16.6l1.6-0.6l0.1-16.6L16,16.5z"/>
</g>
<g>
	<path class="st3" d="M38.8,23.9l-2.9-4.2v0.1l-2.8,7l2.1-1v14.3l1.5-0.7l0.1-14.3L38.8,23.9z"/>
</g>
<path class="st4" d="M13.6,22.4c-0.2,0.2-5.4,4.9-5.9,5.4l-2.9,1.9l1,0.5c0.2,0.1,0.4,0.6,0,1c-0.5,0.7-1.1,1.6-0.9,1.8l0.9,1
	C6,34.2,6,34.4,5.9,34.8l-0.5,1.8l4.4-2.5c0.6-0.4,1.1-0.7,1.6-1.2c2-1.8,2.6-3,3.7-4l2.7-3.5v-8C16.5,18.7,15.1,20.4,13.6,22.4z"/>
<line class="st5" x1="18.1" y1="3.3" x2="18.1" y2="39.9"/>
<g>
	<path class="st4" d="M42.9,34.3c-0.5-0.4-0.4-1.2,0.2-2l0.2-0.2c0.1-0.2,0.1-0.5,0-0.6l-0.5-0.4c-0.5-0.2-0.4-1.1,0.1-1.8l0.4-0.6
		L39,30.5c-0.6,0.1-1.8,0.4-2.3,0.5c-3.5,0.6-3.8-1-4.9-1.7l-0.1,6.5c0.5,0.5,1.1,1,1.7,1.6c0.4,0.4,0.9,0.6,1.3,0.6h0.4
		c1.2-0.1,2.6-0.5,4-1.1l4.4-1.9L42.9,34.3z"/>
	<path class="st4" d="M18.6,17.2v7.6h0.1c6.3,0.4,7.3,0.2,12,9.9l-0.1-7.8C26.1,20.5,24.5,16.5,18.6,17.2z"/>
</g>
<line class="st5" x1="31" y1="9.1" x2="31.3" y2="44.9"/>
</svg>
