<?xml version="1.0" encoding="utf-8"?>
<!-- Generator: Adobe Illustrator 21.0.0, SVG Export Plug-In . SVG Version: 6.00 Build 0)  -->
<svg version="1.1" id="Layer_1" xmlns="http://www.w3.org/2000/svg" xmlns:xlink="http://www.w3.org/1999/xlink" x="0px" y="0px"
	 viewBox="0 0 48 48" style="enable-background:new 0 0 48 48;" xml:space="preserve">
<style type="text/css">
	.st0{fill:none;stroke:#FFFFFF;stroke-miterlimit:10;}
	.st1{fill:#9F9F9F;stroke:#000000;stroke-miterlimit:10;}
	.st2{fill:#FFFFFF;stroke:#000000;stroke-miterlimit:10;}
	.st3{fill:#010101;stroke:#010101;stroke-width:0.5;stroke-miterlimit:10;}
	.st4{fill:none;stroke:#000000;stroke-width:2;stroke-miterlimit:10;}
	.st5{fill:#3B3B3B;stroke:#000000;stroke-miterlimit:10;}
</style>
<g>
	<path class="st0" d="M18.8,11.1"/>
	<g>
		<path class="st1" d="M12,4.8c0-1.1,0.9-2.2,2.1-2.2l22.4-0.2C37,2.4,37.6,2.6,38,3c1.6,1.4,4.9,4.7,6.6,6.2
			c0.5,0.5,0.9,1.2,0.9,1.9v23.5c0,1.1-0.9,2.2-2.1,2.2H13.8c-1,0-1.9-0.9-1.9-1.9L12,4.8z"/>
		<path class="st2" d="M40.1,32.9c-3.9,0-18.5,0-22.8,0c-0.7,0-1.2-0.5-1.2-1.1V17.2c0-0.5,0.5-1.1,1.1-1.1c4.1,0,18.8,0,22.8,0.1
			c0.5,0,1,0.4,1,1c0,3,0.1,11.9,0.1,14.8C41.2,32.4,40.7,32.9,40.1,32.9z"/>
		<path class="st2" d="M29.6,2.7L29.6,2.7H18.5h-0.8h-1v1.4v2.6v4.6c0,0.8,0.6,1.4,1.1,1.4h14.7c0.7,0,1.1-0.6,1.1-1.4V6.5V4.2V2.7
			H29.6z"/>
		<path class="st0" d="M38.1,5.7"/>
		<rect x="28.1" y="4" class="st3" width="3.5" height="6.9"/>
		<line class="st4" x1="21.7" y1="25" x2="31.8" y2="25"/>
		<line class="st4" x1="21.6" y1="29.4" x2="35.1" y2="29.4"/>
	</g>
	<g>
		<path class="st5" d="M2.7,13.7c0-1.1,0.9-2.2,2.1-2.2l22.3-0.2c0.5,0,1.1,0.2,1.5,0.6c1.5,1.4,4.9,4.6,6.5,6.2
			c0.5,0.5,0.9,1.2,0.9,1.9v23.3c0,1.1-0.9,2.2-2.1,2.2H4.5c-1,0-1.9-0.9-1.9-1.9L2.7,13.7z"/>
		<path class="st2" d="M30.7,41.5c-3.9,0-18.4,0-22.6,0c-0.7,0-1.2-0.5-1.2-1.1V26c0-0.5,0.5-1,1.1-1c4.1,0,18.7,0,22.6,0.1
			c0.5,0,1,0.4,1,1c0,3,0.1,11.7,0.1,14.7C31.7,41.1,31.3,41.5,30.7,41.5z"/>
		<path class="st2" d="M20.2,11.6L20.2,11.6H9.2H8.4h-1V13v2.6v4.5c0,0.8,0.6,1.4,1.1,1.4h14.7c0.7,0,1.1-0.6,1.1-1.4v-4.7v-2.3
			v-1.5H20.2z"/>
		<path class="st0" d="M28.6,14.7"/>
		<path class="st0" d="M9.7,14.7"/>
		<rect x="18.7" y="12.9" class="st3" width="3.5" height="6.8"/>
		<line class="st4" x1="12.3" y1="33.7" x2="22.4" y2="33.7"/>
		<line class="st4" x1="12.2" y1="38" x2="25.7" y2="38"/>
	</g>
</g>
</svg>
