<?xml version="1.0" encoding="utf-8"?>
<!-- Generator: Adobe Illustrator 19.2.1, SVG Export Plug-In . SVG Version: 6.00 Build 0)  -->
<svg version="1.1" id="Layer_1" xmlns="http://www.w3.org/2000/svg" xmlns:xlink="http://www.w3.org/1999/xlink" x="0px" y="0px"
	 viewBox="0 0 48 48" style="enable-background:new 0 0 48 48;" xml:space="preserve">
<style type="text/css">
	.st0{fill:#3B3B3B;stroke:#000000;stroke-miterlimit:10;}
	.st1{fill:#FFFFFF;stroke:#000000;stroke-miterlimit:10;}
	.st2{fill:none;stroke:#FFFFFF;stroke-miterlimit:10;}
	.st3{fill:#FFFFFF;stroke:#FFFFFF;stroke-width:0.25;stroke-miterlimit:10;}
	.st4{fill:#010101;stroke:#010101;stroke-width:0.5;stroke-miterlimit:10;}
	.st5{fill:none;stroke:#000000;stroke-miterlimit:10;}
	.st6{fill:#FFFFFF;stroke:#000000;stroke-width:2;stroke-miterlimit:10;}
	.st7{fill:none;stroke:#000000;stroke-width:1.5;stroke-miterlimit:10;}
	.st8{stroke:#000000;stroke-miterlimit:10;}
</style>
<path class="st0" d="M2.6,4.8c0-1.2,1-2.2,2.2-2.2h30.7c1.1,0,2,0.9,2,2v30.9c0,1.2-1,2.2-2.2,2.2H4.5c-1.1,0-2-0.9-2-2L2.6,4.8z"/>
<path class="st1" d="M31.3,33.4c0,0.2-0.1,0.3-0.3,0.3H9.8c-0.2,0-0.3-0.2-0.3-0.3V20.2c0-0.2,0.1-0.3,0.3-0.3H31
	c0.2,0,0.3,0.2,0.3,0.3V33.4z"/>
<path class="st1" d="M25,6L25,6H13.4h-0.8h-1.1v1.4v2.7v4.7c0,0.8,0.6,1.4,1.2,1.4h15.4c0.7,0,1.2-0.6,1.2-1.4V10V7.5V6H25z"/>
<line class="st2" x1="10.5" y1="6" x2="30.4" y2="6"/>
<rect x="36.9" y="34.9" class="st3" width="2.6" height="2.5"/>
<rect x="24.4" y="8.2" class="st4" width="2.7" height="6.8"/>
<line class="st5" x1="11.7" y1="23.3" x2="22.2" y2="23.2"/>
<line class="st5" x1="11.6" y1="27.3" x2="25.7" y2="27.2"/>
<ellipse class="st6" cx="31.1" cy="31" rx="13.9" ry="14"/>
<path class="st6" d="M55.8,39.2"/>
<path class="st7" d="M27.8,34"/>
<path class="st7" d="M42.6,35.9"/>
<path class="st1" d="M32.7,36.1l-1.2-0.9c-1-0.8-1.9-1.3-3.1-1.6l-1.5-0.5l3.9-8h2.1l2.4,1.4l1.2,1.6L32.7,36.1z"/>
<line class="st5" x1="32.7" y1="25.2" x2="28.6" y2="33.8"/>
<line class="st5" x1="35.4" y1="26.6" x2="31.2" y2="35.3"/>
<path class="st5" d="M32.5,36.8l-5.3,3.8c-0.1,0.1-0.3,0-0.3-0.2l-0.2-6.9c0-0.2,0.5-0.2,0.7-0.1l5,2.4
	C32.7,36.3,32.8,36.3,32.5,36.8z"/>
<path class="st8" d="M29.8,38.7l-2.1,1.5c-0.2,0.1-0.5,0-0.6-0.3l-0.2-2.7L29.8,38.7z"/>
<path class="st1" d="M37.3,26.4l-1.4-1.7l-2.4-1.2h-1.9l1-2.1l1.4,0.1c1.4,0.1,2.6,0.8,3.4,1.9l0.9,1L37.3,26.4z"/>
</svg>
