<?xml version="1.0" encoding="utf-8"?>
<!-- Generator: Adobe Illustrator 19.2.1, SVG Export Plug-In . SVG Version: 6.00 Build 0)  -->
<svg version="1.1" id="Layer_1" xmlns="http://www.w3.org/2000/svg" xmlns:xlink="http://www.w3.org/1999/xlink" x="0px" y="0px"
	 viewBox="0 0 48 48" style="enable-background:new 0 0 48 48;" xml:space="preserve">
<style type="text/css">
	.st0{fill:#FFFFFF;stroke:#010101;stroke-width:1.5;stroke-miterlimit:10;}
	.st1{fill:none;stroke:#333333;stroke-miterlimit:10;}
	.st2{stroke:#000000;stroke-width:0.5;stroke-miterlimit:10;}
	.st3{fill:none;stroke:#000000;stroke-miterlimit:10;}
	.st4{fill:#010202;stroke:#010202;stroke-width:1.5;stroke-miterlimit:10;}
	.st5{fill:#FFFFFF;stroke:#000000;stroke-width:2;stroke-miterlimit:10;}
	.st6{fill:none;stroke:#010101;stroke-miterlimit:10;}
</style>
<g>
	<path class="st0" d="M2.4,1.9c-0.3,0-0.5,0.2-0.5,0.5v35.5c0,1.3,1,2.3,2.3,2.3h27.5c0.3,0,0.5-0.2,0.5-0.5V13.9l-11.6-12
		C20.6,1.9,2.4,1.9,2.4,1.9z"/>
</g>
<line class="st1" x1="6.2" y1="29.6" x2="27" y2="29.6"/>
<line class="st1" x1="6" y1="35.4" x2="26.8" y2="35.4"/>
<line class="st1" x1="11.3" y1="10.2" x2="11.3" y2="37.5"/>
<line class="st1" x1="22.4" y1="10.5" x2="22.4" y2="37.6"/>
<line class="st1" x1="27.1" y1="10.7" x2="27.1" y2="37.4"/>
<line class="st1" x1="6.2" y1="10.4" x2="6.2" y2="37.4"/>
<line class="st1" x1="6.6" y1="7.7" x2="20.8" y2="7.7"/>
<line class="st1" x1="6.1" y1="12.7" x2="27.1" y2="12.7"/>
<path class="st1" d="M27.9,16.2"/>
<path class="st1" d="M6.9,16.2"/>
<line class="st1" x1="6.2" y1="18.1" x2="27" y2="18.1"/>
<line class="st1" x1="17.1" y1="10.4" x2="17.1" y2="37.4"/>
<path class="st0" d="M23.2,14.1l8.3-0.1c0.4,0,0.5-0.3,0.3-0.5l-10.7-11c-0.2-0.2-0.5-0.1-0.5,0.2l0.1,8.8
	C20.7,13,21.8,14.1,23.2,14.1z"/>
<line class="st1" x1="6.5" y1="23.9" x2="20.8" y2="23.9"/>
<path class="st2" d="M27.1,28.7"/>
<path class="st3" d="M24.2,29"/>
<path class="st4" d="M28.6,32.6"/>
<path class="st1" d="M28.5,30.5"/>
<path class="st1" d="M28.5,37.3"/>
<path class="st2" d="M25.4,29.1"/>
<path class="st3" d="M22.5,29.4"/>
<ellipse class="st5" cx="31.9" cy="31.9" rx="13.9" ry="13.9"/>
<line class="st6" x1="30.2" y1="21.7" x2="32.5" y2="21.7"/>
<line class="st6" x1="30.5" y1="21.3" x2="26.7" y2="40.6"/>
<line class="st6" x1="32.4" y1="21.3" x2="36.3" y2="40.6"/>
<line class="st6" x1="31.4" y1="20.9" x2="31.4" y2="42.9"/>
<line class="st6" x1="28.5" y1="23.9" x2="34.4" y2="23.9"/>
<line class="st6" x1="28.5" y1="25.6" x2="34.4" y2="25.6"/>
<line class="st6" x1="28.6" y1="24" x2="28.6" y2="25.5"/>
<line class="st6" x1="34.1" y1="24.2" x2="34.1" y2="25.5"/>
<line class="st6" x1="35.9" y1="39.1" x2="28.2" y2="34.2"/>
<line class="st6" x1="28.6" y1="32.5" x2="33.7" y2="28.9"/>
<line class="st6" x1="33.6" y1="28.9" x2="29.8" y2="25.5"/>
<line class="st6" x1="27.3" y1="32.8" x2="35.6" y2="32.8"/>
<line class="st6" x1="27.3" y1="34.2" x2="35.6" y2="34.2"/>
<line class="st6" x1="27.2" y1="32.8" x2="27.2" y2="34.2"/>
<line class="st6" x1="35.6" y1="32.8" x2="35.6" y2="34.2"/>
</svg>
