<?xml version="1.0" encoding="utf-8"?>
<!-- Generator: Adobe Illustrator 21.0.0, SVG Export Plug-In . SVG Version: 6.00 Build 0)  -->
<svg version="1.1" id="Layer_1" xmlns="http://www.w3.org/2000/svg" xmlns:xlink="http://www.w3.org/1999/xlink" x="0px" y="0px"
	 viewBox="0 0 48 48" style="enable-background:new 0 0 48 48;" xml:space="preserve">
<style type="text/css">
	.st0{fill:none;stroke:#010101;stroke-width:2;stroke-miterlimit:10;}
	.st1{stroke:#000000;stroke-width:2;stroke-miterlimit:10;}
	.st2{fill:none;stroke:#000000;stroke-width:2;stroke-miterlimit:10;}
	.st3{fill:#010202;stroke:#010202;stroke-width:2;stroke-miterlimit:10;}
</style>
<g>
	<line class="st0" x1="15.7" y1="25.9" x2="15.7" y2="28.5"/>
	<g>
		<path class="st1" d="M29.5,20.2"/>
		<path class="st2" d="M21.7,20.9"/>
		<path class="st3" d="M33.5,30.5"/>
		<line class="st0" x1="21.7" y1="3.8" x2="26.3" y2="3.8"/>
		<line class="st0" x1="22.2" y1="3.1" x2="15" y2="41.3"/>
		<line class="st0" x1="26" y1="3.1" x2="33.5" y2="41.3"/>
		<line class="st0" x1="24.1" y1="2.2" x2="24.1" y2="45.8"/>
		<line class="st0" x1="18.5" y1="8" x2="29.7" y2="8"/>
		<line class="st0" x1="18.5" y1="11.5" x2="29.7" y2="11.5"/>
		<line class="st0" x1="18.8" y1="8.5" x2="18.8" y2="11.2"/>
		<line class="st0" x1="29.2" y1="8.5" x2="29.2" y2="11.2"/>
		<line class="st0" x1="32.9" y1="38.6" x2="18" y2="28.9"/>
		<line class="st0" x1="18.8" y1="25.2" x2="28.4" y2="18.1"/>
		<line class="st0" x1="28.4" y1="18.1" x2="21.1" y2="11.5"/>
		<line class="st0" x1="16.4" y1="25.8" x2="31.9" y2="25.8"/>
		<line class="st0" x1="16.4" y1="28.6" x2="31.9" y2="28.6"/>
		<line class="st0" x1="32.5" y1="26" x2="32.5" y2="28.4"/>
	</g>
</g>
</svg>
